<svg class="logo" xmlns="http://www.w3.org/2000/svg" xmlns:xlink="http://www.w3.org/1999/xlink" x="0px" y="0px"
	 viewBox="0 0 114.267 75.245" style="enable-background:new 0 0 114.267 75.245;" xml:space="preserve">
<polygon style="fill:#FFFFFF;" points="0,18.923 12.495,18.923 12.495,74.426 0,74.426 0,18.923 "/>
<path style="fill:#FFFFFF;" d="M16.185,10.939V0h21.39v50.948c0,7.188,5.944,12.981,12.991,12.981
	c7.146,0,13.242-5.399,13.242-13.03V18.923h12.086l0.005,32.025c-0.058,7.287,5.87,12.981,13.157,12.981
	c7.013,0,13.198-5.694,13.198-12.981V18.923h12.013l-0.002,32.025c0,15.646-11.802,24.297-23.463,24.297
	c-8.884,0-15.72-2.783-20.751-10.586c-5.22,7.768-11.934,10.586-20.818,10.586c-11.661,0-23.72-8.651-23.72-24.297V10.943
	L16.185,10.939L16.185,10.939z"/>
</svg>
